<?xml version="1.0" encoding="UTF-8" standalone="no"?>
<!-- Created with Inkscape (http://www.inkscape.org/) -->

<svg
   width="134.95866mm"
   height="134.95866mm"
   viewBox="0 0 134.95866 134.95866"
   version="1.1"
   id="svg5"
   xml:space="preserve"
   inkscape:export-filename="AN.svg"
   inkscape:export-xdpi="96"
   inkscape:export-ydpi="96"
   xmlns:inkscape="http://www.inkscape.org/namespaces/inkscape"
   xmlns:sodipodi="http://sodipodi.sourceforge.net/DTD/sodipodi-0.dtd"
   xmlns="http://www.w3.org/2000/svg"
   xmlns:svg="http://www.w3.org/2000/svg"><sodipodi:namedview
     id="namedview7"
     pagecolor="#ffffff"
     bordercolor="#000000"
     borderopacity="0.25"
     inkscape:showpageshadow="2"
     inkscape:pageopacity="0.0"
     inkscape:pagecheckerboard="0"
     inkscape:deskcolor="#d1d1d1"
     inkscape:document-units="mm"
     showgrid="false" /><defs
     id="defs2" /><g
     inkscape:label="Layer 1"
     inkscape:groupmode="layer"
     id="layer1"
     transform="translate(-48.513206,-80.28186)"><path
       style="display:inline;fill:#ffffff;stroke-width:0.0846667"
       d="m 113.45254,215.18983 c -9.57683,-0.39224 -19.367564,-2.85999 -27.527125,-6.93821 -5.262742,-2.63037 -10.718331,-6.3416 -14.975543,-10.18729 -6.575465,-5.93985 -11.907179,-12.99516 -15.715341,-20.79568 -0.477103,-0.97728 -0.860604,-1.77738 -0.852226,-1.778 0.0084,-8.5e-4 3.173892,0.0179 7.034474,0.0412 l 7.01924,0.0423 0.77488,1.27 c 2.594613,4.25247 5.892513,8.43321 8.605856,10.90961 6.710495,6.12449 15.186466,10.82509 24.235565,13.44055 4.38351,1.26696 10.02889,2.12924 13.94022,2.12924 3.10312,0 7.91958,-0.62549 11.56954,-1.50247 8.89643,-2.13754 17.82306,-6.62984 24.75172,-12.45621 2.38268,-2.00363 3.27882,-2.89978 5.28245,-5.28246 6.42848,-7.64468 11.20111,-17.67846 13.00276,-27.33654 0.31113,-1.66782 0.62472,-3.95159 0.80357,-5.85205 0.12826,-1.36291 0.14057,-1.4156 0.50395,-2.159 0.20486,-0.4191 0.47519,-1.00965 0.60074,-1.31234 0.12555,-0.30268 0.30728,-0.74083 0.40384,-0.97366 0.0966,-0.23284 0.34053,-0.76799 0.54216,-1.18924 0.20162,-0.42125 0.3666,-0.81713 0.3666,-0.87973 0,-0.13175 0.32636,-0.83432 0.47445,-1.02137 0.0553,-0.0699 0.15846,-0.29845 0.22923,-0.508 0.14013,-0.41494 0.29704,-0.78367 0.77463,-1.82033 0.86691,-1.88171 1.1335,-2.47575 1.3256,-2.95382 0.0957,-0.23806 0.21577,-0.50905 0.26691,-0.60218 0.29498,-0.53715 0.65451,-1.36549 0.65451,-1.50794 0,-0.0661 0.0687,-0.21109 0.15277,-0.32214 0.15846,-0.20945 0.54654,-1.06 0.65227,-1.42959 0.0333,-0.11641 0.17153,-0.40843 0.30716,-0.64891 0.13563,-0.24049 0.32229,-0.65726 0.41481,-0.92616 0.0925,-0.26889 0.27595,-0.68173 0.40764,-0.91741 0.13169,-0.23568 0.28462,-0.56187 0.33983,-0.72485 0.17973,-0.53054 0.88792,-2.11667 0.94508,-2.11667 0.0649,0 0.79266,2.90871 1.21801,4.86834 0.59984,2.7636 1.08259,6.1531 1.33247,9.35566 0.13224,1.69494 0.13224,7.6184 0,9.31334 -0.71318,9.14058 -3.07213,17.88772 -6.87674,25.49939 -2.58367,5.16904 -6.3252,10.66047 -10.14282,14.8866 -7.03591,7.7888 -15.67434,13.85532 -25.08125,17.61383 -6.1067,2.43991 -13.59013,4.1429 -20.43823,4.65109 -1.23863,0.0919 -6.08094,0.17196 -7.32366,0.12106 z m 31.15733,-31.28275 c -2.68698,-0.21745 -4.42636,-0.33196 -5.04188,-0.33193 -0.90787,5e-5 -1.27762,-0.22137 -1.61749,-0.96857 -0.21377,-0.47 -0.99401,-2.67301 -1.38115,-3.89972 -0.0882,-0.2794 -0.41302,-1.2319 -0.72185,-2.11667 -0.30884,-0.88477 -0.67043,-1.93252 -0.80353,-2.32833 -0.13312,-0.39582 -0.49476,-1.44357 -0.80366,-2.32834 -0.3089,-0.88476 -0.63248,-1.81821 -0.71906,-2.07433 -0.0866,-0.25612 -0.41052,-1.18957 -0.71986,-2.07433 -0.30934,-0.88477 -0.67197,-1.93252 -0.80584,-2.32834 -0.13388,-0.39581 -0.43823,-1.27211 -0.67635,-1.94733 -0.23812,-0.67522 -0.58032,-1.66582 -0.76045,-2.20133 -0.61069,-1.81552 -1.02699,-3.00478 -1.14105,-3.25967 -0.0625,-0.1397 -0.1416,-0.34925 -0.17575,-0.46567 -0.0821,-0.27997 -1.10443,-3.14302 -1.31509,-3.683 -0.0908,-0.23283 -0.40931,-1.10913 -0.70772,-1.94733 -0.29841,-0.8382 -0.58072,-1.61925 -0.62735,-1.73567 -0.0466,-0.11641 -0.16873,-0.42121 -0.27134,-0.67733 -0.21695,-0.54153 -0.38927,-0.762 -0.5956,-0.762 -0.17381,0 -0.57001,0.43294 -0.77691,0.84892 -0.20651,0.41523 -0.78646,1.83774 -0.91381,2.24141 -0.0588,0.18627 -0.23269,0.64347 -0.38652,1.016 -0.5477,1.32644 -1.46267,3.63829 -2.01052,5.08 -0.15926,0.4191 -0.44772,1.16205 -0.64103,1.651 -0.1933,0.48895 -0.45985,1.19537 -0.59234,1.56983 -0.13248,0.37445 -0.35646,0.94595 -0.49772,1.27 -0.14127,0.32404 -0.31308,0.78094 -0.38181,1.01533 -0.0687,0.23439 -0.25904,0.74874 -0.42291,1.143 -0.31876,0.76691 -0.60713,1.50772 -0.90523,2.32551 -0.10185,0.2794 -0.31167,0.8128 -0.46627,1.18533 -0.1546,0.37254 -0.33714,0.86784 -0.40565,1.10067 -0.0685,0.23283 -0.27526,0.78528 -0.45944,1.22767 -0.18418,0.44238 -0.43461,1.07103 -0.55651,1.397 -0.12189,0.32596 -0.32144,0.85936 -0.44345,1.18533 -0.122,0.32597 -0.37654,0.97367 -0.56564,1.43933 -0.59563,1.46679 -0.67425,1.66864 -0.70492,1.80973 -0.0319,0.14683 -0.26834,0.74947 -0.61865,1.57694 -0.11829,0.2794 -0.3175,0.7747 -0.44269,1.10067 -0.45071,1.17357 -1.33798,3.32695 -1.50876,3.66169 -0.22101,0.43321 -0.79724,0.92988 -1.20679,1.04016 -0.20426,0.055 -3.24752,0.077 -8.61047,0.0623 -7.890326,-0.0217 -8.302855,-0.0303 -8.465126,-0.17719 -0.09382,-0.0849 -0.192341,-0.24108 -0.218933,-0.34703 -0.05738,-0.22864 0.381238,-1.63644 0.661527,-2.12324 0.107248,-0.18626 0.272683,-0.54821 0.367631,-0.80433 0.09495,-0.25612 0.30471,-0.75468 0.466138,-1.10792 0.161428,-0.35323 0.342154,-0.79138 0.401613,-0.97366 0.05946,-0.18228 0.23593,-0.58352 0.392159,-0.89163 0.156228,-0.30811 0.284051,-0.58677 0.284051,-0.61925 0,-0.0325 0.09919,-0.27569 0.220416,-0.54047 0.737873,-1.61158 1.303584,-2.91157 1.303584,-2.9956 0,-0.0534 0.05089,-0.15729 0.113098,-0.23081 0.06221,-0.0735 0.239284,-0.43846 0.39351,-0.81099 0.154227,-0.37254 0.446233,-1.01302 0.648903,-1.42329 0.202669,-0.41027 0.368489,-0.81471 0.368489,-0.89875 0,-0.084 0.06791,-0.24366 0.150911,-0.35471 0.083,-0.11106 0.241131,-0.41147 0.3514,-0.66759 0.110268,-0.25611 0.360759,-0.80856 0.556639,-1.22766 0.19589,-0.4191 0.38552,-0.85725 0.42141,-0.97367 0.0359,-0.11642 0.15392,-0.36447 0.26228,-0.55122 0.10836,-0.18676 0.29041,-0.58681 0.40456,-0.889 0.11415,-0.3022 0.30594,-0.7209 0.42621,-0.93045 0.12027,-0.20955 0.28236,-0.5715 0.36019,-0.80433 0.0778,-0.23283 0.26494,-0.65193 0.41579,-0.93133 0.15085,-0.2794 0.30036,-0.60325 0.33225,-0.71967 0.0319,-0.11642 0.18635,-0.47837 0.34324,-0.80433 0.39449,-0.81961 1.8649,-4.18611 1.94148,-4.445 0.0344,-0.11642 0.12143,-0.30466 0.19332,-0.41832 0.12832,-0.20285 0.63304,-1.37492 1.13241,-2.62968 0.13899,-0.34925 0.35275,-0.8636 0.47502,-1.143 0.12227,-0.2794 0.32569,-0.7747 0.45204,-1.10067 0.12635,-0.32597 0.48529,-1.22132 0.79766,-1.98967 0.31237,-0.76835 0.61567,-1.5702 0.67401,-1.7819 0.0583,-0.2117 0.15564,-0.47751 0.21621,-0.5907 0.11255,-0.21029 1.36712,-3.47624 1.95067,-5.07806 0.51865,-1.42368 0.8376,-2.28337 1.09941,-2.96334 0.13447,-0.34925 0.47829,-1.2827 0.76404,-2.07433 0.28576,-0.79163 0.594,-1.61078 0.685,-1.82033 0.091,-0.20955 0.17398,-0.43815 0.18442,-0.508 0.0104,-0.0699 0.10367,-0.34608 0.2072,-0.61384 0.10353,-0.26775 0.26123,-0.68685 0.35046,-0.93133 0.246,-0.67402 0.90087,-2.42091 1.40449,-3.7465 0.24767,-0.65193 0.53485,-1.43298 0.63816,-1.73567 0.10331,-0.30268 0.24405,-0.661 0.31276,-0.79626 0.0687,-0.13526 0.26957,-0.64961 0.44637,-1.143 0.1768,-0.49339 0.47487,-1.27807 0.66237,-1.74374 0.18751,-0.46566 0.49179,-1.22766 0.67617,-1.69333 0.73507,-1.85641 0.86148,-2.11612 1.15813,-2.37937 0.37194,-0.33007 1.0588,-0.45696 2.47341,-0.45696 1.43094,0 6.25209,-0.33566 6.71324,-0.46739 0.0699,-0.02 0.48895,-0.0767 0.93134,-0.12612 0.44238,-0.0494 1.43298,-0.20283 2.20133,-0.34094 2.04675,-0.3679 3.93923,-0.5589 4.11255,-0.41506 0.37097,0.30788 0.64573,0.94422 1.3687,3.16984 0.42355,1.30387 0.90677,2.78977 1.07384,3.302 0.16707,0.51223 0.31985,0.98848 0.33952,1.05833 0.10133,0.3599 1.1855,3.74187 1.31638,4.10634 0.0836,0.23283 0.38179,1.14723 0.66264,2.032 0.28085,0.88476 0.85406,2.67546 1.2738,3.97933 0.41975,1.30387 1.09335,3.39937 1.49689,4.65667 0.40355,1.2573 1.037,3.2004 1.40766,4.318 0.37066,1.1176 0.74564,2.2606 0.83326,2.54 0.0876,0.2794 0.37345,1.1176 0.63516,1.86266 0.2617,0.74507 0.66517,1.90228 0.89658,2.57158 0.61456,1.77747 1.00519,2.35281 1.65507,2.43772 0.28295,0.037 0.36373,0.006 0.60031,-0.22675 0.15035,-0.14819 0.3599,-0.4467 0.46567,-0.66333 0.10576,-0.21664 0.23993,-0.44423 0.29813,-0.50576 0.0582,-0.0615 0.10584,-0.14374 0.10584,-0.18268 0,-0.0389 0.16566,-0.42674 0.36812,-0.86179 0.20247,-0.43504 0.47127,-1.05769 0.59733,-1.38365 0.12606,-0.32597 0.31843,-0.80222 0.42749,-1.05834 0.10906,-0.25611 0.29529,-0.75141 0.41386,-1.10066 0.11857,-0.34925 0.31786,-0.8636 0.44286,-1.143 0.125,-0.2794 0.31425,-0.7747 0.42055,-1.10067 0.1063,-0.32597 0.2593,-0.74507 0.33997,-0.93133 0.0807,-0.18627 0.29876,-0.75777 0.48463,-1.27 0.18586,-0.51224 0.46339,-1.27424 0.61672,-1.69334 0.15333,-0.4191 0.44871,-1.23825 0.65639,-1.82033 0.20767,-0.58208 0.42339,-1.17263 0.47935,-1.31233 0.056,-0.1397 0.1156,-0.31115 0.13251,-0.381 0.0304,-0.12559 0.33164,-0.95229 0.80886,-2.21977 0.13531,-0.35939 0.24602,-0.70697 0.24602,-0.77241 0,-0.0654 0.0764,-0.29174 0.16984,-0.50291 0.15507,-0.35057 0.62994,-1.6661 1.2292,-3.40525 0.12836,-0.37253 0.32207,-0.88891 0.43045,-1.14751 0.10838,-0.2586 0.30846,-0.792 0.4446,-1.18533 0.61101,-1.76526 0.86322,-2.45649 1.05235,-2.88413 0.11166,-0.25248 0.26887,-0.66785 0.34938,-0.92304 0.0805,-0.25519 0.25576,-0.73069 0.38945,-1.05665 0.1337,-0.32597 0.47663,-1.18322 0.76209,-1.905 0.89527,-2.26375 1.20619,-2.7706 1.81193,-2.95381 0.14358,-0.0434 1.44215,-0.10159 2.88571,-0.12925 1.44357,-0.0277 3.88197,-0.10571 5.41867,-0.17344 5.30377,-0.23378 9.0658,-0.32465 9.25472,-0.22355 0.10984,0.0588 0.18477,0.19591 0.20142,0.36866 0.0307,0.31812 -0.32341,1.47131 -0.63481,2.06745 -0.19424,0.37182 -0.41584,0.88744 -1.37662,3.20294 -0.1739,0.4191 -0.46681,1.08585 -0.6509,1.48166 -0.18409,0.39582 -0.42873,0.96732 -0.54365,1.27 -0.11492,0.30269 -0.3172,0.77894 -0.44952,1.05834 -0.13233,0.2794 -0.60937,1.3462 -1.06011,2.37066 -0.45073,1.02447 -0.96376,2.16747 -1.14006,2.54 -0.1763,0.37254 -0.36802,0.82974 -0.42605,1.016 -0.058,0.18627 -0.15017,0.39582 -0.20477,0.46567 -0.0546,0.0699 -0.1886,0.33655 -0.29779,0.59267 -0.10919,0.25611 -0.3408,0.77046 -0.51469,1.143 -0.1739,0.37253 -0.42202,0.94403 -0.55139,1.27 -0.12937,0.32596 -0.28694,0.6725 -0.35017,0.77008 -0.0632,0.0976 -0.20515,0.40238 -0.31542,0.67733 -0.11026,0.27496 -0.57129,1.31907 -1.02449,2.32025 -0.45321,1.00119 -0.97301,2.18229 -1.15511,2.62467 -0.1821,0.44238 -0.42109,0.97578 -0.5311,1.18533 -0.11,0.20955 -0.22841,0.47625 -0.26315,0.59267 -0.0347,0.11642 -0.18931,0.48605 -0.3435,0.8214 -0.15419,0.33536 -0.33964,0.78438 -0.41211,0.99784 -0.0725,0.21345 -0.18789,0.47376 -0.25649,0.57847 -0.0686,0.1047 -0.31148,0.64628 -0.53971,1.2035 -0.59475,1.45203 -0.74992,1.83113 -1.17704,2.87579 -0.20943,0.51223 -0.50703,1.23613 -0.66134,1.60867 -0.28856,0.69666 -0.53581,1.30666 -0.9781,2.413 -0.13962,0.34925 -0.35389,0.8636 -0.47617,1.143 -0.12226,0.2794 -0.32567,0.7747 -0.45201,1.10066 -0.27625,0.71277 -0.74767,1.86984 -1.13835,2.794 -0.15748,0.37254 -0.37748,0.90594 -0.48888,1.18534 -0.1114,0.2794 -0.30889,0.7747 -0.43885,1.10066 -0.12997,0.32597 -0.38209,0.93557 -0.56026,1.35467 -0.17817,0.4191 -0.41474,0.9906 -0.5257,1.27 -0.52916,1.33247 -0.69748,1.74867 -0.99295,2.45533 -0.28657,0.68538 -0.47874,1.15552 -1.2286,3.00567 -0.12267,0.30268 -0.39542,0.96943 -0.60609,1.48167 -0.21068,0.51223 -0.52802,1.29328 -0.70522,1.73566 -0.56062,1.39971 -0.86606,2.14739 -1.0376,2.54 -0.0916,0.20955 -0.27737,0.66675 -0.41292,1.016 -0.13554,0.34925 -0.33995,0.84455 -0.45423,1.10067 -0.26865,0.60207 -1.02943,2.47357 -1.2023,2.95762 -0.17399,0.48716 -0.75777,1.07089 -1.17957,1.17946 -0.17876,0.046 -1.60137,0.12552 -3.16135,0.17669 -1.55998,0.0512 -3.27448,0.10831 -3.81,0.12698 -0.53552,0.0187 -1.41182,-0.002 -1.94733,-0.0449 z M 56.302539,172.47977 c -2.754457,-0.11582 -4.384018,-0.43836 -5.0165,-0.99292 -0.264959,-0.23231 -0.132024,-0.79948 0.333763,-1.42399 0.107472,-0.14409 0.195404,-0.28382 0.195404,-0.3105 0,-0.0267 0.17145,-0.33851 0.381,-0.69295 0.20955,-0.35444 0.381,-0.66447 0.381,-0.68897 0,-0.0245 0.1524,-0.26896 0.338666,-0.54325 0.186267,-0.27429 0.338667,-0.5142 0.338667,-0.53313 0,-0.0189 0.209134,-0.37345 0.464742,-0.78781 0.255608,-0.41437 0.651688,-1.06217 0.880179,-1.43956 0.22849,-0.37739 0.743257,-1.20858 1.143925,-1.8471 0.400668,-0.63851 0.728487,-1.17936 0.728487,-1.20189 0,-0.0225 0.24765,-0.41534 0.550334,-0.87292 0.302683,-0.45758 0.550333,-0.87478 0.550333,-0.92711 0,-0.0523 0.0381,-0.0951 0.08467,-0.0951 0.04657,0 0.08467,-0.0362 0.08467,-0.0804 0,-0.0442 0.28575,-0.51868 0.635,-1.05433 0.34925,-0.53564 0.635,-0.99592 0.635,-1.02285 0,-0.0269 0.28575,-0.48352 0.635,-1.01466 0.34925,-0.53114 0.635,-1.00304 0.635,-1.04867 0,-0.0456 0.0294,-0.0957 0.06534,-0.11118 0.08733,-0.0377 1.627989,-2.51232 1.627989,-2.61487 0,-0.0442 0.03005,-0.0804 0.06678,-0.0804 0.03673,0 0.196728,-0.21908 0.355557,-0.48683 0.158827,-0.26776 0.605028,-0.97457 0.991555,-1.57069 0.386527,-0.59612 0.702777,-1.10623 0.702777,-1.13357 0,-0.0273 0.204652,-0.35875 0.454783,-0.73648 0.727853,-1.09913 1.23855,-1.91183 1.23855,-1.97098 0,-0.0301 0.147908,-0.24883 0.328685,-0.48596 0.180776,-0.23714 0.393725,-0.55966 0.473219,-0.71673 0.0795,-0.15706 0.457887,-0.76666 0.840872,-1.35466 0.620135,-0.95211 0.918527,-1.42374 1.193557,-1.8865 0.04657,-0.0784 0.193169,-0.30749 0.325783,-0.5092 0.999678,-1.5205 2.002551,-3.12156 2.002551,-3.19701 0,-0.0499 0.0381,-0.0907 0.08467,-0.0907 0.04657,0 0.08467,-0.0421 0.08467,-0.0936 0,-0.0515 0.1143,-0.23797 0.254,-0.41435 0.1397,-0.17639 0.254,-0.34461 0.254,-0.37383 0,-0.0786 0.455211,-0.76453 0.529166,-0.79739 0.03493,-0.0155 0.0635,-0.067 0.0635,-0.11451 0,-0.0475 0.242134,-0.45386 0.538074,-0.90311 0.729508,-1.10744 1.15526,-1.78481 1.15526,-1.83801 0,-0.0243 0.0701,-0.11948 0.155791,-0.21146 0.08568,-0.092 0.20945,-0.27135 0.275032,-0.39862 0.06558,-0.12727 0.138707,-0.25046 0.1625,-0.27374 0.07199,-0.0705 0.507343,-0.75545 0.507343,-0.79828 0,-0.0373 0.418948,-0.69013 1.907339,-2.97209 0.335071,-0.51372 0.677432,-1.06595 0.760803,-1.22717 0.08337,-0.16122 0.298196,-0.48732 0.477387,-0.72466 0.179193,-0.23733 0.325805,-0.45785 0.325805,-0.49004 0,-0.0322 0.381,-0.64477 0.846666,-1.36129 0.465667,-0.71652 0.846667,-1.34078 0.846667,-1.38723 0,-0.0465 0.02858,-0.0972 0.0635,-0.11268 0.09956,-0.0443 1.037166,-1.47518 1.037166,-1.58288 0,-0.053 0.02858,-0.0966 0.0635,-0.097 0.03493,-3.3e-4 0.105146,-0.0861 0.156048,-0.1905 0.200542,-0.41136 0.420075,-0.78242 0.5118,-0.86505 0.13017,-0.11725 1.131319,-1.72769 1.131319,-1.81982 0,-0.0403 0.03347,-0.0859 0.07437,-0.10141 0.06892,-0.0262 1.026295,-1.46559 1.026295,-1.54307 0,-0.0191 0.569326,-0.92432 1.265169,-2.01161 0.695843,-1.08728 1.562618,-2.44509 1.926167,-3.01735 0.363548,-0.57226 0.893763,-1.39353 1.178256,-1.82504 0.284492,-0.43152 0.612853,-0.9539 0.729689,-1.16086 0.116838,-0.20696 0.578501,-0.94779 1.025919,-1.64629 0.937456,-1.46354 1.20577,-1.8854 2.342484,-3.683 0.456419,-0.72178 0.951559,-1.50283 1.10031,-1.73567 1.227459,-1.92128 2.370005,-3.777003 2.370005,-3.849356 0,-0.0482 0.0381,-0.08764 0.08467,-0.08764 0.04657,0 0.08467,-0.04064 0.08467,-0.09032 0,-0.04967 0.09568,-0.215762 0.212628,-0.369085 0.219937,-0.288353 1.057372,-1.653778 1.057372,-1.724029 0,-0.02185 0.181957,-0.311049 0.404349,-0.642653 0.222392,-0.331605 0.479567,-0.748229 0.5715,-0.925833 0.304077,-0.587439 1.123864,-1.606638 1.495094,-1.858767 l 0.36539,-0.248171 1.22767,0.05652 c 0.67522,0.03108 2.12302,0.132154 3.21733,0.2246 2.57198,0.217279 5.88881,0.288486 7.83167,0.168133 3.86109,-0.239182 5.9298,-0.299843 6.21379,-0.18221 0.34959,0.144804 0.71545,0.771012 0.88888,1.521422 0.14332,0.620101 0.52065,2.633962 0.60402,3.223727 0.0296,0.20955 0.0706,0.486902 0.0911,0.616337 0.0544,0.344358 0.40753,2.957675 0.50473,3.735685 0.0285,0.22826 0.0638,0.47724 0.0785,0.5533 0.0147,0.076 0.0528,0.36554 0.0848,0.64331 0.032,0.27777 0.072,0.60028 0.089,0.7167 0.0169,0.11642 0.0909,0.68792 0.16434,1.27 0.0735,0.58208 0.15479,1.11548 0.18073,1.18533 0.0259,0.0699 0.0627,0.26035 0.0817,0.42334 0.019,0.16298 0.0719,0.62018 0.11768,1.016 0.11106,0.96091 0.18807,1.6054 0.22255,1.86266 0.0156,0.11642 0.0492,0.42122 0.0746,0.67734 0.0254,0.25611 0.0636,0.57996 0.0847,0.71966 0.0212,0.1397 0.0584,0.42545 0.0827,0.635 0.0243,0.20955 0.10267,0.8382 0.17413,1.397 0.0715,0.5588 0.15076,1.22555 0.1762,1.48167 0.0255,0.25611 0.0593,0.50766 0.0751,0.55899 0.0194,0.0629 -0.33637,0.11166 -1.09001,0.14948 -1.10102,0.0553 -2.46296,0.31473 -3.14271,0.59875 -0.98451,0.41136 -2.04142,1.63744 -2.41289,2.79911 -0.0596,0.18627 -0.21253,0.56773 -0.33993,0.8477 -0.1274,0.27996 -0.28983,0.68001 -0.36097,0.889 -0.0711,0.20898 -0.25949,0.66572 -0.41857,1.01497 -0.15909,0.34925 -0.33648,0.82334 -0.39421,1.05353 -0.0949,0.37844 -0.20893,0.66806 -0.56908,1.4454 -0.065,0.14039 -0.1537,0.36899 -0.19701,0.508 -0.0433,0.139 -0.17216,0.50038 -0.28632,0.80307 -0.11417,0.30268 -0.29019,0.77893 -0.39118,1.05833 -0.10098,0.2794 -0.23584,0.6223 -0.29969,0.762 -0.0639,0.1397 -0.24817,0.63835 -0.4096,1.1081 -0.16143,0.46976 -0.35964,0.98198 -0.44046,1.13828 -0.0808,0.1563 -0.21338,0.51491 -0.29457,0.7969 -0.0812,0.282 -0.21461,0.66512 -0.29652,0.85139 -0.0819,0.18626 -0.29229,0.73871 -0.46754,1.22766 -0.42021,1.17239 -0.94705,2.60895 -1.22651,3.34434 -0.12387,0.32596 -0.27761,0.74506 -0.34164,0.93133 -0.064,0.18627 -0.2365,0.66252 -0.38327,1.05833 -0.14678,0.39582 -0.32152,0.87207 -0.38832,1.05834 -0.0668,0.18626 -0.17691,0.45872 -0.24468,0.60546 -0.0678,0.14674 -0.1238,0.29914 -0.12452,0.33867 -6.8e-4,0.0395 -0.15773,0.47192 -0.34892,0.96087 -0.1912,0.48895 -0.49072,1.29076 -0.66561,1.7818 -0.17489,0.49104 -0.41591,1.10688 -0.53559,1.36853 -0.11968,0.26165 -0.28119,0.69809 -0.35892,0.96986 -0.0777,0.27178 -0.26414,0.76254 -0.41427,1.09059 -0.15014,0.32804 -0.29961,0.70261 -0.33218,0.83236 -0.0326,0.12976 -0.191,0.52123 -0.35208,0.86995 -0.16107,0.34871 -0.3183,0.73615 -0.3494,0.86097 -0.0311,0.12481 -0.19658,0.53194 -0.36773,0.90471 -0.17115,0.37278 -0.36064,0.82998 -0.42109,1.016 -0.0604,0.18603 -0.23786,0.6171 -0.39427,0.95795 -0.1564,0.34085 -0.30999,0.72185 -0.34131,0.84667 -0.0313,0.12482 -0.18818,0.51269 -0.34856,0.86194 -0.16039,0.34925 -0.36188,0.8365 -0.44776,1.08277 -0.0859,0.24628 -0.22911,0.55108 -0.3183,0.67734 -0.0892,0.12625 -0.25869,0.49626 -0.37667,0.82222 -0.11797,0.32597 -0.37291,0.93557 -0.56651,1.35467 -0.19361,0.4191 -0.40263,0.8763 -0.4645,1.016 -0.0619,0.1397 -0.19667,0.4445 -0.29955,0.67733 -0.10288,0.23284 -0.29935,0.66146 -0.43659,0.9525 l -0.249539,0.52917 -7.509842,0.002 c -8.720458,0.002 -11.651285,0.10069 -12.678611,0.42622 -0.334692,0.10606 -1.477563,1.3165 -1.477563,1.56492 0,0.0313 -0.10976,0.1958 -0.243912,0.36548 -0.228358,0.28885 -0.340833,0.47018 -0.821559,1.32452 -0.10481,0.18627 -0.308949,0.54822 -0.453643,0.80433 -0.144694,0.25612 -0.494275,0.91982 -0.776847,1.47489 -0.282572,0.55507 -0.738828,1.40565 -1.013903,1.89017 -0.275075,0.48453 -0.500136,0.89876 -0.500136,0.92052 0,0.0218 -0.03875,0.0856 -0.08611,0.14183 -0.04736,0.0562 -0.283893,0.36896 -0.525628,0.69493 -1.171516,1.57972 -1.643993,1.83314 -3.706262,1.98788 -1.395918,0.10475 -8.102073,0.25709 -10.583333,0.24042 -0.908049,-0.006 -2.317749,-0.0391 -3.132666,-0.0734 z m 45.913271,-30.3247 c 0.26928,-0.0717 0.66933,-0.24121 0.889,-0.37681 0.86294,-0.53267 0.99376,-1.47099 0.98964,-7.09807 -0.002,-2.92561 -0.0749,-5.95842 -0.16654,-6.94267 -0.0173,-0.18626 -0.0557,-0.79586 -0.0853,-1.35466 -0.0296,-0.5588 -0.0686,-1.1684 -0.0868,-1.35467 -0.0182,-0.18627 -0.0547,-0.60537 -0.0812,-0.93133 -0.0826,-1.01774 -0.13784,-1.4989 -0.26219,-2.286 -0.19236,-1.21762 -0.26988,-1.40761 -0.50899,-1.24746 -0.13051,0.0874 -0.79625,1.08 -0.79625,1.18717 0,0.0487 -0.0305,0.10121 -0.0678,0.11673 -0.10465,0.0435 -0.86351,1.13808 -0.86351,1.24548 0,0.0523 -0.0381,0.0951 -0.0847,0.0951 -0.0466,0 -0.0847,0.0406 -0.0847,0.0903 0,0.0497 -0.0953,0.2152 -0.21167,0.36783 -0.11642,0.15263 -0.21167,0.30412 -0.21167,0.33665 0,0.0325 -0.1524,0.26099 -0.33866,0.5077 -0.18627,0.24671 -0.33867,0.47293 -0.33867,0.50272 0,0.0607 -0.448607,0.7824 -0.942999,1.517 -0.179851,0.26723 -0.327001,0.50496 -0.327001,0.5283 0,0.0233 -0.17145,0.3099 -0.381,0.63682 -0.20955,0.32692 -0.381,0.60778 -0.381,0.62414 0,0.0163 -0.1905,0.31866 -0.423333,0.6718 -0.232833,0.35314 -0.423333,0.664 -0.423333,0.69079 0,0.0268 -0.32385,0.56481 -0.719667,1.19559 -0.395817,0.63078 -0.719667,1.16781 -0.719667,1.19339 0,0.0256 -0.166135,0.29929 -0.369189,0.60824 -0.400906,0.60997 -1.239477,2.02348 -1.239477,2.08927 0,0.0224 -0.147093,0.25934 -0.326873,0.52657 -0.17978,0.26723 -0.440868,0.69543 -0.580195,0.95154 -0.294452,0.54128 -0.490208,0.88454 -0.860539,1.509 -0.539841,0.91028 -1.627178,3.13209 -1.673986,3.42054 -0.04319,0.26613 -0.01679,0.32106 0.253348,0.5271 0.698213,0.53255 1.820799,0.62789 7.082911,0.6015 3.15292,-0.0158 3.94122,-0.043 4.34194,-0.14959 z m 17.28982,30.19409 c 0.0386,-0.0889 0.14405,-0.39024 0.2343,-0.66964 0.0902,-0.2794 0.3127,-0.85697 0.49435,-1.28349 0.18164,-0.42651 0.33026,-0.81452 0.33026,-0.86225 0,-0.0477 0.0902,-0.30835 0.20034,-0.57918 0.11019,-0.27082 0.28485,-0.72101 0.38814,-1.00041 0.10329,-0.2794 0.33301,-0.8509 0.51049,-1.27 0.17748,-0.4191 0.35003,-0.89535 0.38345,-1.05833 0.0334,-0.16299 0.12836,-0.44874 0.21099,-0.635 0.20591,-0.46419 0.45621,-1.08766 0.6798,-1.69334 0.10315,-0.2794 0.27534,-0.7366 0.38266,-1.016 0.10731,-0.2794 0.22134,-0.5995 0.2534,-0.71134 0.0321,-0.11184 0.20209,-0.51607 0.37784,-0.8983 0.17575,-0.38222 0.34645,-0.82412 0.37934,-0.98199 0.0329,-0.15787 0.20351,-0.62993 0.37917,-1.04903 0.17566,-0.4191 0.42571,-1.03823 0.55567,-1.37584 0.12996,-0.33761 0.26303,-0.61383 0.2957,-0.61383 0.0327,0 0.11881,0.20002 0.19141,0.4445 0.15029,0.50612 0.44588,1.33878 0.60863,1.7145 0.0605,0.1397 0.20502,0.53975 0.32113,0.889 0.25657,0.77173 0.56364,1.65918 1.04001,3.00567 0.3844,1.08653 0.51053,1.62316 0.58706,2.49766 0.0265,0.30269 0.0655,0.72179 0.0868,0.93134 0.0416,0.41022 0.0971,1.14134 0.1737,2.286 0.0265,0.39581 0.0513,1.11157 0.0552,1.59056 0.007,0.84529 -3.4e-4,0.88015 -0.24614,1.18533 -0.75469,0.93719 -1.93252,1.16911 -6.41084,1.26232 -2.47114,0.0514 -2.53134,0.0488 -2.46284,-0.10891 z m -68.746239,-7.32633 c -0.135112,-0.36822 -0.943991,-4.0839 -1.18657,-5.45064 -1.394631,-7.85763 -1.394631,-15.76437 0,-23.622 0.980317,-5.5233 2.682912,-11.13844 4.833122,-15.93957 2.701336,-6.03172 6.76147,-12.25917 11.246403,-17.24976 5.713165,-6.357308 12.735009,-11.722507 20.273069,-15.490099 7.520274,-3.758701 16.310905,-6.122296 25.410455,-6.832275 1.69494,-0.132245 7.61839,-0.132245 9.31333,0 9.09955,0.709979 17.89019,3.073574 25.41046,6.832275 5.26274,2.630367 10.71833,6.341594 14.97554,10.187286 1.29899,1.173422 3.65587,3.515833 4.84452,4.814763 3.41408,3.73086 6.80067,8.42906 9.24152,12.8207 l 0.31347,0.56399 -0.61693,0.0464 c -0.9175,0.0691 -5.49181,0.23358 -8.57558,0.30842 -2.53427,0.0615 -2.76366,0.08 -3.55017,0.28704 -0.46245,0.12171 -0.90405,0.27851 -0.98132,0.34844 -0.12811,0.11594 -0.19143,0.0506 -0.71849,-0.74159 -1.73237,-2.60378 -4.79292,-6.27524 -6.66267,-7.99261 -8.32409,-7.64568 -19.48914,-13.130272 -30.41141,-14.938953 -1.08512,-0.17969 -1.64582,-0.30886 -1.7026,-0.39223 -0.86893,-1.275746 -1.34708,-1.629627 -2.61144,-1.932718 -1.05756,-0.253517 -1.10791,-0.253427 -5.60123,0.0101 -3.4793,0.204056 -6.93156,0.141882 -9.779,-0.176118 -0.20955,-0.0234 -1.11613,-0.08198 -2.01461,-0.130166 -1.61056,-0.08638 -1.64629,-0.08456 -2.53159,0.128784 -0.778832,0.187689 -0.972106,0.271661 -1.45672,0.632908 -0.865191,0.644943 -1.738332,1.659971 -2.350727,2.732726 -0.166685,0.291986 -0.37763,0.661258 -0.468767,0.820601 -0.09114,0.159344 -0.305551,0.503148 -0.476477,0.764009 -0.459024,0.700546 -0.515406,0.792532 -0.599625,0.978275 -0.04223,0.09313 -0.206107,0.349189 -0.364173,0.569013 -0.268234,0.373033 -0.433847,0.472968 -2.484185,1.499006 -4.497566,2.250693 -8.264514,4.700763 -11.805722,7.678603 -2.382684,2.00362 -3.278829,2.89976 -5.282451,5.28245 -2.966005,3.52714 -5.321842,7.14141 -7.587726,11.64093 -1.883073,3.73934 -3.132919,6.90211 -4.235317,10.71757 -1.293379,4.47646 -2.120164,9.93822 -2.145686,14.17443 -0.0111,1.84308 -0.01345,1.86577 -0.222889,2.15864 -0.116416,0.16279 -0.281852,0.42638 -0.367634,0.58575 -0.08578,0.15937 -0.342958,0.55603 -0.5715,0.88147 -0.228542,0.32543 -0.415532,0.62343 -0.415532,0.66222 0,0.0388 -0.36195,0.62081 -0.804333,1.29338 -0.442384,0.67258 -0.804334,1.25053 -0.804334,1.28434 0,0.0338 -0.1524,0.26333 -0.338666,0.51004 -0.186267,0.2467 -0.338667,0.47107 -0.338667,0.49859 0,0.0275 -0.13335,0.25849 -0.296333,0.51328 -0.162984,0.25478 -0.296334,0.48808 -0.296334,0.51843 0,0.0303 -0.05451,0.11542 -0.121137,0.18905 -0.06663,0.0736 -0.17267,0.22902 -0.235653,0.34533 -0.06298,0.11631 -0.294221,0.48809 -0.513862,0.82618 -0.219641,0.33808 -0.399348,0.63668 -0.399348,0.66354 0,0.0269 -0.28575,0.48159 -0.635,1.01049 -0.34925,0.52889 -0.635,0.98432 -0.635,1.01204 0,0.0277 -0.06972,0.15365 -0.154926,0.27982 -0.542317,0.80303 -1.491421,2.34163 -1.70834,2.76941 -0.212478,0.41901 -0.766233,1.14332 -0.801215,1.04797 z"
       id="path125" /></g></svg>
